<svg width="44" height="44" viewBox="0 0 44 44" fill="none" xmlns="http://www.w3.org/2000/svg">
<path d="M28.875 15.125H32.3125C33.2242 15.125 34.0985 15.4872 34.7432 16.1318C35.3878 16.7765 35.75 17.6508 35.75 18.5625V36.4375C35.75 37.3492 35.3878 38.2235 34.7432 38.8682C34.0985 39.5128 33.2242 39.875 32.3125 39.875H11.6875C10.7758 39.875 9.90148 39.5128 9.25682 38.8682C8.61216 38.2235 8.25 37.3492 8.25 36.4375V18.5625C8.25 17.6508 8.61216 16.7765 9.25682 16.1318C9.90148 15.4872 10.7758 15.125 11.6875 15.125H15.125" stroke="#FAFFFF" stroke-width="1.5" stroke-linecap="round" stroke-linejoin="round"/>
<path d="M15.125 23.375L22 30.25L28.875 23.375M22 4.125V28.875" stroke="#FAFFFF" stroke-width="1.5" stroke-linecap="round" stroke-linejoin="round"/>
</svg>
