<svg width="87" height="80" viewBox="0 0 87 80" fill="none" xmlns="http://www.w3.org/2000/svg">
<path d="M8.71887 63.1521L8.43898 61.078H6.21686L5.92001 63.1521H0L2.63771 50.2148H11.9503L14.6728 63.1521H8.71887ZM7.57388 54.6944C7.55126 54.5584 7.52865 54.4139 7.50603 54.2609C7.48341 54.1022 7.4608 53.9435 7.43818 53.7848C7.42122 53.6205 7.40425 53.4618 7.38729 53.3088C7.37033 53.1502 7.35619 53.0028 7.34488 52.8668H7.31096C7.29965 53.0028 7.28551 53.1502 7.26855 53.3088C7.25159 53.4618 7.2318 53.6205 7.20918 53.7848C7.19222 53.9435 7.17243 54.1022 7.14981 54.2609C7.12719 54.4139 7.10458 54.5584 7.08196 54.6944L6.61548 57.7034H8.05732L7.57388 54.6944Z" fill="#242C39"/>
<path d="M17.4025 63.1521V50.2148H23.1528V59.446H26.9355V63.1521H17.4025Z" fill="#242C39"/>
<path d="M37.2391 63.1521V59.2675C37.1938 59.1258 37.1543 58.9728 37.1203 58.8085C37.0864 58.6385 37.0525 58.4685 37.0186 58.2985C36.9903 58.1285 36.962 57.9641 36.9337 57.8054C36.9111 57.6411 36.8913 57.4966 36.8744 57.3719H36.8404C36.8235 57.4966 36.8037 57.6411 36.7811 57.8054C36.7585 57.9641 36.7302 58.1285 36.6963 58.2985C36.668 58.4685 36.6341 58.6385 36.5945 58.8085C36.5606 58.9728 36.521 59.1258 36.4757 59.2675V63.1521H29.3175L27.4261 50.2148H32.9475L33.3546 54.8304C33.3716 55.0344 33.3885 55.2412 33.4055 55.4509C33.4224 55.6606 33.4366 55.8674 33.4479 56.0714C33.4592 56.2697 33.4677 56.4596 33.4733 56.6409C33.4846 56.8223 33.4903 56.9894 33.4903 57.1424H33.5242C33.5921 56.8194 33.6628 56.4879 33.7363 56.1479C33.8098 55.8022 33.8889 55.4849 33.9737 55.1959L34.7454 50.2148H39.3847L39.7411 55.1959C39.8202 55.4849 39.8994 55.8051 39.9786 56.1564C40.0577 56.5021 40.1284 56.8308 40.1906 57.1424H40.233C40.2387 56.9894 40.2443 56.8223 40.25 56.6409C40.2613 56.4596 40.2726 56.2697 40.2839 56.0714C40.3009 55.8674 40.3178 55.6606 40.3348 55.4509C40.3517 55.2412 40.3687 55.0344 40.3857 54.8304L40.7843 50.2148H46.3226L44.4143 63.1521H37.2391Z" fill="#242C39"/>
<path d="M55.4812 63.1521L55.2013 61.078H52.9792L52.6823 63.1521H46.7623L49.4 50.2148H58.7126L61.4351 63.1521H55.4812ZM54.3362 54.6944C54.3136 54.5584 54.291 54.4139 54.2683 54.2609C54.2457 54.1022 54.2231 53.9435 54.2005 53.7848C54.1835 53.6205 54.1666 53.4618 54.1496 53.3088C54.1326 53.1502 54.1185 53.0028 54.1072 52.8668H54.0733C54.062 53.0028 54.0478 53.1502 54.0309 53.3088C54.0139 53.4618 53.9941 53.6205 53.9715 53.7848C53.9545 53.9435 53.9347 54.1022 53.9121 54.2609C53.8895 54.4139 53.8669 54.5584 53.8443 54.6944L53.3778 57.7034H54.8196L54.3362 54.6944Z" fill="#242C39"/>
<path d="M64.0375 63.1521V59.0465L59.729 50.2148H65.3776L66.2088 52.6203C66.3049 52.9093 66.3982 53.221 66.4887 53.5553C66.5848 53.8897 66.6781 54.2099 66.7686 54.5159H66.8194C66.9043 54.2099 66.9947 53.8897 67.0908 53.5553C67.1926 53.221 67.2916 52.9093 67.3877 52.6203L68.2443 50.2148H73.8675L69.5589 59.0465V63.1521H64.0375Z" fill="#242C39"/>
<path d="M78.6836 58.0859C78.1747 57.8819 77.7054 57.6723 77.2756 57.4569C76.8459 57.2416 76.4727 56.9809 76.1561 56.6749C75.8451 56.3689 75.602 56.0006 75.4267 55.5699C75.2514 55.1335 75.1638 54.5924 75.1638 53.9463C75.1638 53.1813 75.3051 52.5381 75.5878 52.0168C75.8706 51.4898 76.2805 51.0676 76.8176 50.7503C77.3548 50.4273 78.0079 50.1978 78.7768 50.0617C79.5515 49.9201 80.4307 49.8492 81.4146 49.8492C81.9065 49.8492 82.3843 49.8662 82.8479 49.9002C83.3116 49.9342 83.7526 49.9767 84.171 50.0277C84.5894 50.0787 84.9824 50.1383 85.3499 50.2063C85.7175 50.2686 86.0482 50.3309 86.3422 50.3933V53.4873C85.8843 53.459 85.4687 53.4335 85.0955 53.4108C84.728 53.3825 84.3661 53.3598 84.0099 53.3428C83.6593 53.3258 83.3031 53.3117 82.9412 53.3003C82.585 53.289 82.192 53.2833 81.7623 53.2833C81.3891 53.2833 81.1177 53.3145 80.9481 53.3768C80.7841 53.4392 80.7021 53.5525 80.7021 53.7168C80.7021 53.7848 80.7134 53.8472 80.736 53.9038C80.7643 53.9548 80.8152 54.0058 80.8887 54.0568C80.9622 54.1078 81.0668 54.1645 81.2025 54.2269C81.3439 54.2892 81.5248 54.3629 81.7453 54.4479L82.9921 54.9324C83.6536 55.1874 84.2247 55.4424 84.7053 55.6974C85.1916 55.9467 85.5902 56.2272 85.9012 56.5389C86.2179 56.8506 86.4525 57.2133 86.6052 57.6269C86.7578 58.0406 86.8342 58.5365 86.8342 59.1145C86.8342 59.9192 86.6928 60.602 86.4101 61.163C86.1274 61.724 85.7316 62.1802 85.2227 62.5316C84.7195 62.8772 84.1201 63.1266 83.4246 63.2796C82.7348 63.4383 81.9828 63.5176 81.1686 63.5176C80.6145 63.5176 80.0745 63.5063 79.5487 63.4836C79.0228 63.4609 78.5196 63.4269 78.039 63.3816C77.564 63.3419 77.1145 63.2937 76.6904 63.2371C76.2664 63.1804 75.8847 63.1181 75.5454 63.0501V59.8285C75.8564 59.8455 76.1674 59.8653 76.4784 59.888C76.795 59.9107 77.1343 59.9305 77.4962 59.9475C77.8637 59.9645 78.2651 59.9815 78.7005 59.9985C79.1415 60.0098 79.6419 60.0155 80.2017 60.0155C80.4053 60.0155 80.5721 60.0042 80.7021 59.9815C80.8322 59.9532 80.9339 59.9163 81.0075 59.871C81.081 59.82 81.1318 59.7633 81.1601 59.701C81.1884 59.633 81.2025 59.5593 81.2025 59.48C81.2025 59.395 81.1884 59.3213 81.1601 59.259C81.1318 59.1966 81.0753 59.1371 80.9905 59.0805C80.9113 59.0238 80.7954 58.9643 80.6428 58.902C80.4957 58.834 80.3007 58.749 80.0575 58.647L78.6836 58.0859Z" fill="#242C39"/>
<path d="M21.7648 68.3417H23.5765L27.6529 80H26.1373L25.0921 76.8888H20.2667L19.204 80H17.6885L21.7648 68.3417ZM24.6217 75.5213L22.7055 69.7092H22.6533L20.7196 75.5213H24.6217Z" fill="#242C39"/>
<path d="M30.9166 68.3417H32.3799V78.6324H37.7802V80H30.9166V68.3417Z" fill="#242C39"/>
<path d="M41.0033 68.3417H48.285V69.6579H42.4666V73.3845H47.8669V74.6666H42.4666V78.6837H48.4592V80H41.0033V68.3417Z" fill="#242C39"/>
<path d="M52.2299 68.3417H55.1565C55.7953 68.3417 56.3759 68.3987 56.8985 68.5126C57.4328 68.6152 57.8857 68.7975 58.2573 69.0596C58.629 69.3104 58.9135 69.6465 59.1109 70.0682C59.3083 70.4899 59.4071 71.0198 59.4071 71.658C59.3954 72.3645 59.2735 72.94 59.0412 73.3845C58.809 73.8175 58.5244 74.1708 58.1876 74.4443C57.8508 74.7064 57.4618 74.9002 57.0205 75.0255V75.0597C57.0669 75.1053 57.1366 75.1908 57.2295 75.3161C57.334 75.4301 57.4211 75.5327 57.4908 75.6238L60.8529 80H59.1283L55.6791 75.3674H53.6932V80H52.2299V68.3417ZM57.9263 71.8973C57.9263 71.4186 57.8625 71.0312 57.7347 70.7349C57.6186 70.4272 57.4386 70.1936 57.1947 70.034C56.9624 69.8745 56.6721 69.7662 56.3237 69.7092C55.9753 69.6522 55.5804 69.6237 55.1391 69.6237H53.6932V74.0853H55.4178C55.8707 74.0853 56.254 74.0284 56.5676 73.9144C56.8811 73.8004 57.1366 73.6466 57.334 73.4529C57.5315 73.2477 57.6766 73.0141 57.7695 72.752C57.8625 72.4899 57.9147 72.205 57.9263 71.8973Z" fill="#242C39"/>
<path d="M65.9646 69.675H62.2366V68.3417H71.1558V69.675H67.4279V80H65.9646V69.675Z" fill="#242C39"/>
<path d="M8.71887 63.1521L8.43898 61.078H6.21686L5.92001 63.1521H0L2.63771 50.2148H11.9503L14.6728 63.1521H8.71887ZM7.57388 54.6944C7.55126 54.5584 7.52865 54.4139 7.50603 54.2609C7.48341 54.1022 7.4608 53.9435 7.43818 53.7848C7.42122 53.6205 7.40425 53.4618 7.38729 53.3088C7.37033 53.1502 7.35619 53.0028 7.34488 52.8668H7.31096C7.29965 53.0028 7.28551 53.1502 7.26855 53.3088C7.25159 53.4618 7.2318 53.6205 7.20918 53.7848C7.19222 53.9435 7.17243 54.1022 7.14981 54.2609C7.12719 54.4139 7.10458 54.5584 7.08196 54.6944L6.61548 57.7034H8.05732L7.57388 54.6944Z" fill="#242C39"/>
<path d="M17.4025 63.1521V50.2148H23.1528V59.446H26.9355V63.1521H17.4025Z" fill="#242C39"/>
<path d="M37.2391 63.1521V59.2675C37.1938 59.1258 37.1543 58.9728 37.1203 58.8085C37.0864 58.6385 37.0525 58.4685 37.0186 58.2985C36.9903 58.1285 36.962 57.9641 36.9337 57.8054C36.9111 57.6411 36.8913 57.4966 36.8744 57.3719H36.8404C36.8235 57.4966 36.8037 57.6411 36.7811 57.8054C36.7585 57.9641 36.7302 58.1285 36.6963 58.2985C36.668 58.4685 36.6341 58.6385 36.5945 58.8085C36.5606 58.9728 36.521 59.1258 36.4757 59.2675V63.1521H29.3175L27.4261 50.2148H32.9475L33.3546 54.8304C33.3716 55.0344 33.3885 55.2412 33.4055 55.4509C33.4224 55.6606 33.4366 55.8674 33.4479 56.0714C33.4592 56.2697 33.4677 56.4596 33.4733 56.6409C33.4846 56.8223 33.4903 56.9894 33.4903 57.1424H33.5242C33.5921 56.8194 33.6628 56.4879 33.7363 56.1479C33.8098 55.8022 33.8889 55.4849 33.9737 55.1959L34.7454 50.2148H39.3847L39.7411 55.1959C39.8202 55.4849 39.8994 55.8051 39.9786 56.1564C40.0577 56.5021 40.1284 56.8308 40.1906 57.1424H40.233C40.2387 56.9894 40.2443 56.8223 40.25 56.6409C40.2613 56.4596 40.2726 56.2697 40.2839 56.0714C40.3009 55.8674 40.3178 55.6606 40.3348 55.4509C40.3517 55.2412 40.3687 55.0344 40.3857 54.8304L40.7843 50.2148H46.3226L44.4143 63.1521H37.2391Z" fill="#242C39"/>
<path d="M55.4812 63.1521L55.2013 61.078H52.9792L52.6823 63.1521H46.7623L49.4 50.2148H58.7126L61.4351 63.1521H55.4812ZM54.3362 54.6944C54.3136 54.5584 54.291 54.4139 54.2683 54.2609C54.2457 54.1022 54.2231 53.9435 54.2005 53.7848C54.1835 53.6205 54.1666 53.4618 54.1496 53.3088C54.1326 53.1502 54.1185 53.0028 54.1072 52.8668H54.0733C54.062 53.0028 54.0478 53.1502 54.0309 53.3088C54.0139 53.4618 53.9941 53.6205 53.9715 53.7848C53.9545 53.9435 53.9347 54.1022 53.9121 54.2609C53.8895 54.4139 53.8669 54.5584 53.8443 54.6944L53.3778 57.7034H54.8196L54.3362 54.6944Z" fill="#242C39"/>
<path d="M64.0375 63.1521V59.0465L59.729 50.2148H65.3776L66.2088 52.6203C66.3049 52.9093 66.3982 53.221 66.4887 53.5553C66.5848 53.8897 66.6781 54.2099 66.7686 54.5159H66.8194C66.9043 54.2099 66.9947 53.8897 67.0908 53.5553C67.1926 53.221 67.2916 52.9093 67.3877 52.6203L68.2443 50.2148H73.8675L69.5589 59.0465V63.1521H64.0375Z" fill="#242C39"/>
<path d="M78.6836 58.0859C78.1747 57.8819 77.7054 57.6723 77.2756 57.4569C76.8459 57.2416 76.4727 56.9809 76.1561 56.6749C75.8451 56.3689 75.602 56.0006 75.4267 55.5699C75.2514 55.1335 75.1638 54.5924 75.1638 53.9463C75.1638 53.1813 75.3051 52.5381 75.5878 52.0168C75.8706 51.4898 76.2805 51.0676 76.8176 50.7503C77.3548 50.4273 78.0079 50.1978 78.7768 50.0617C79.5515 49.9201 80.4307 49.8492 81.4146 49.8492C81.9065 49.8492 82.3843 49.8662 82.8479 49.9002C83.3116 49.9342 83.7526 49.9767 84.171 50.0277C84.5894 50.0787 84.9824 50.1383 85.3499 50.2063C85.7175 50.2686 86.0482 50.3309 86.3422 50.3933V53.4873C85.8843 53.459 85.4687 53.4335 85.0955 53.4108C84.728 53.3825 84.3661 53.3598 84.0099 53.3428C83.6593 53.3258 83.3031 53.3117 82.9412 53.3003C82.585 53.289 82.192 53.2833 81.7623 53.2833C81.3891 53.2833 81.1177 53.3145 80.9481 53.3768C80.7841 53.4392 80.7021 53.5525 80.7021 53.7168C80.7021 53.7848 80.7134 53.8472 80.736 53.9038C80.7643 53.9548 80.8152 54.0058 80.8887 54.0568C80.9622 54.1078 81.0668 54.1645 81.2025 54.2269C81.3439 54.2892 81.5248 54.3629 81.7453 54.4479L82.9921 54.9324C83.6536 55.1874 84.2247 55.4424 84.7053 55.6974C85.1916 55.9467 85.5902 56.2272 85.9012 56.5389C86.2179 56.8506 86.4525 57.2133 86.6052 57.6269C86.7578 58.0406 86.8342 58.5365 86.8342 59.1145C86.8342 59.9192 86.6928 60.602 86.4101 61.163C86.1274 61.724 85.7316 62.1802 85.2227 62.5316C84.7195 62.8772 84.1201 63.1266 83.4246 63.2796C82.7348 63.4383 81.9828 63.5176 81.1686 63.5176C80.6145 63.5176 80.0745 63.5063 79.5487 63.4836C79.0228 63.4609 78.5196 63.4269 78.039 63.3816C77.564 63.3419 77.1145 63.2937 76.6904 63.2371C76.2664 63.1804 75.8847 63.1181 75.5454 63.0501V59.8285C75.8564 59.8455 76.1674 59.8653 76.4784 59.888C76.795 59.9107 77.1343 59.9305 77.4962 59.9475C77.8637 59.9645 78.2651 59.9815 78.7005 59.9985C79.1415 60.0098 79.6419 60.0155 80.2017 60.0155C80.4053 60.0155 80.5721 60.0042 80.7021 59.9815C80.8322 59.9532 80.9339 59.9163 81.0075 59.871C81.081 59.82 81.1318 59.7633 81.1601 59.701C81.1884 59.633 81.2025 59.5593 81.2025 59.48C81.2025 59.395 81.1884 59.3213 81.1601 59.259C81.1318 59.1966 81.0753 59.1371 80.9905 59.0805C80.9113 59.0238 80.7954 58.9643 80.6428 58.902C80.4957 58.834 80.3007 58.749 80.0575 58.647L78.6836 58.0859Z" fill="#242C39"/>
<path d="M21.7648 68.3417H23.5765L27.6529 80H26.1373L25.0921 76.8888H20.2667L19.204 80H17.6885L21.7648 68.3417ZM24.6217 75.5213L22.7055 69.7092H22.6533L20.7196 75.5213H24.6217Z" fill="#C83D3D"/>
<path d="M30.9166 68.3417H32.3799V78.6324H37.7802V80H30.9166V68.3417Z" fill="#C83D3D"/>
<path d="M41.0033 68.3417H48.285V69.6579H42.4666V73.3845H47.8669V74.6666H42.4666V78.6837H48.4592V80H41.0033V68.3417Z" fill="#C83D3D"/>
<path d="M52.2299 68.3417H55.1565C55.7953 68.3417 56.3759 68.3987 56.8985 68.5126C57.4328 68.6152 57.8857 68.7975 58.2573 69.0596C58.629 69.3104 58.9135 69.6465 59.1109 70.0682C59.3083 70.4899 59.4071 71.0198 59.4071 71.658C59.3954 72.3645 59.2735 72.94 59.0412 73.3845C58.809 73.8175 58.5244 74.1708 58.1876 74.4443C57.8508 74.7064 57.4618 74.9002 57.0205 75.0255V75.0597C57.0669 75.1053 57.1366 75.1908 57.2295 75.3161C57.334 75.4301 57.4211 75.5327 57.4908 75.6238L60.8529 80H59.1283L55.6791 75.3674H53.6932V80H52.2299V68.3417ZM57.9263 71.8973C57.9263 71.4186 57.8625 71.0312 57.7347 70.7349C57.6186 70.4272 57.4386 70.1936 57.1947 70.034C56.9624 69.8745 56.6721 69.7662 56.3237 69.7092C55.9753 69.6522 55.5804 69.6237 55.1391 69.6237H53.6932V74.0853H55.4178C55.8707 74.0853 56.254 74.0284 56.5676 73.9144C56.8811 73.8004 57.1366 73.6466 57.334 73.4529C57.5315 73.2477 57.6766 73.0141 57.7695 72.752C57.8625 72.4899 57.9147 72.205 57.9263 71.8973Z" fill="#C83D3D"/>
<path d="M65.9646 69.675H62.2366V68.3417H71.1558V69.675H67.4279V80H65.9646V69.675Z" fill="#C83D3D"/>
<path d="M44.1814 9.82311C43.6325 9.41373 43.7697 8.66321 44.1814 8.52675C46.7891 8.11738 52.9652 8.99071 56.8081 15.759C57.4028 17.1691 58.5236 20.3713 58.2492 21.8997C58.0662 22.3773 57.7002 22.8549 56.8081 22.1726C56.465 12.8934 48.6419 9.82311 44.1814 9.82311Z" fill="#C83D3D"/>
<path d="M43.9903 2.20935C43.1211 1.55435 43.3384 0.353512 43.9903 0.135186C48.1191 -0.519814 57.8979 0.87752 63.9825 11.7069C64.9242 13.963 66.6988 19.0865 66.2642 21.5318C65.9745 22.296 65.395 23.0602 63.9825 21.9685C63.4392 7.12185 51.0528 2.20935 43.9903 2.20935Z" fill="#C83D3D"/>
<path d="M45.1848 39.4091C46.1081 39.9872 45.9906 41.1984 45.3571 41.4698C41.2841 42.4655 31.3927 41.8945 24.4109 31.6444C23.2822 29.4818 21.0826 24.54 21.314 22.0743C21.5401 21.291 22.056 20.4834 23.5586 21.4499C25.3347 36.1541 38.1248 39.9994 45.1848 39.4091Z" fill="#C83D3D"/>
<path d="M45.1844 33.7761C45.724 34.19 45.5799 34.9366 45.1704 35.0682C42.5818 35.4482 36.4709 34.5115 32.7357 27.7243C32.1615 26.3125 31.0853 23.1088 31.3738 21.5885C31.5603 21.1144 31.9281 20.6423 32.8048 21.3319C33.0448 30.5842 40.7641 33.7282 45.1844 33.7761Z" fill="#C83D3D"/>
<path d="M51.0551 21.7085C51.0551 25.2609 48.2653 28.1407 44.8239 28.1407C41.3826 28.1407 38.5928 25.2609 38.5928 21.7085C38.5928 18.1561 41.3826 15.2764 44.8239 15.2764C48.2653 15.2764 51.0551 18.1561 51.0551 21.7085Z" fill="#C83D3D"/>
<path fill-rule="evenodd" clip-rule="evenodd" d="M44.8239 25.9554C47.062 25.9554 48.9153 24.0761 48.9153 21.7085C48.9153 19.341 47.062 17.4617 44.8239 17.4617C42.5859 17.4617 40.7326 19.341 40.7326 21.7085C40.7326 24.0761 42.5859 25.9554 44.8239 25.9554ZM44.8239 28.1407C48.2653 28.1407 51.0551 25.2609 51.0551 21.7085C51.0551 18.1561 48.2653 15.2764 44.8239 15.2764C41.3826 15.2764 38.5928 18.1561 38.5928 21.7085C38.5928 25.2609 41.3826 28.1407 44.8239 28.1407Z" fill="#C83D3D"/>
</svg>
